<svg width="26" height="26" viewBox="0 0 26 26" fill="none" xmlns="http://www.w3.org/2000/svg">
<path fill-rule="evenodd" clip-rule="evenodd" d="M9.94955 7.71114L9.95651 7.66859L9.95813 7.65018C9.96137 7.59875 9.95451 7.54838 9.93896 7.50135L9.92073 7.45584L9.91348 7.44115C9.89068 7.39717 9.8593 7.3571 9.82018 7.32362L9.80568 7.31178C9.79442 7.30301 9.78269 7.2949 9.77048 7.28736L4.58139 4.0334C4.42436 3.93495 4.2201 3.95804 4.08912 4.08912C3.95804 4.2201 3.93495 4.42436 4.0334 4.58139L7.2886 9.77248C7.37742 9.91415 7.54533 9.98503 7.70875 9.95002L9.30272 9.60801C9.45565 9.57519 9.57519 9.45565 9.60801 9.30272L9.94955 7.71114Z" fill="#737373"/>
<path fill-rule="evenodd" clip-rule="evenodd" d="M16.2295 7.28736L16.1941 7.31188L16.1798 7.32362C16.1406 7.3571 16.1093 7.39717 16.0864 7.44115L16.0665 7.48589L16.061 7.50135C16.0454 7.54838 16.0386 7.59875 16.0418 7.65018L16.0434 7.66887C16.045 7.68299 16.0473 7.69711 16.0504 7.71114L16.3919 9.30272C16.4247 9.45565 16.5443 9.57519 16.6972 9.60801L18.2912 9.95002C18.4546 9.98503 18.6225 9.91415 18.7113 9.77248L21.9665 4.58139C22.065 4.42436 22.0419 4.2201 21.9108 4.08912C21.7798 3.95804 21.5756 3.93495 21.4185 4.0334L16.2295 7.28736Z" fill="#737373"/>
<path fill-rule="evenodd" clip-rule="evenodd" d="M16.0504 18.2868L16.0434 18.3293L16.0418 18.3478C16.0386 18.3992 16.0454 18.4496 16.061 18.4966L16.0792 18.5421L16.0864 18.5568C16.1092 18.6008 16.1406 18.6408 16.1798 18.6743L16.1943 18.6861C16.2055 18.6949 16.2172 18.703 16.2295 18.7106L21.4185 21.9645C21.5756 22.063 21.7798 22.0399 21.9108 21.9088C22.0419 21.7778 22.065 21.5736 21.9665 21.4165L18.7113 16.2255C18.6225 16.0838 18.4546 16.0129 18.2912 16.0479L16.6972 16.3899C16.5443 16.4227 16.4247 16.5423 16.3919 16.6952L16.0504 18.2868Z" fill="#737373"/>
<path fill-rule="evenodd" clip-rule="evenodd" d="M9.77048 18.7106L9.80587 18.6861L9.82018 18.6743C9.8593 18.6408 9.89059 18.6008 9.91348 18.5568L9.93342 18.512L9.93896 18.4966C9.95451 18.4496 9.96137 18.3992 9.95813 18.3478L9.95651 18.3291C9.95489 18.3149 9.9526 18.3008 9.94955 18.2868L9.60801 16.6952C9.57519 16.5423 9.45565 16.4227 9.30272 16.3899L7.70875 16.0479C7.54533 16.0129 7.37742 16.0838 7.2886 16.2255L4.0334 21.4165C3.93495 21.5736 3.95804 21.7778 4.08912 21.9088C4.2201 22.0399 4.42436 22.063 4.58139 21.9645L9.77048 18.7106Z" fill="#737373"/>
<path fill-rule="evenodd" clip-rule="evenodd" d="M13.7749 0.617439C13.6921 0.256153 13.3706 0 13 0C12.6294 0 12.3079 0.256153 12.2251 0.617439L10.1206 9.79908C10.1026 9.87751 10.063 9.94925 10.0061 10.0061C9.94925 10.063 9.87751 10.1026 9.79908 10.1206L0.617439 12.2251C0.256153 12.3079 0 12.6294 0 13C0 13.3706 0.256153 13.6921 0.617439 13.7749L9.79908 15.8794C9.87751 15.8974 9.94925 15.937 10.0061 15.9939C10.063 16.0508 10.1026 16.1225 10.1206 16.2009L12.2251 25.3826C12.3079 25.7438 12.6294 26 13 26C13.3706 26 13.6921 25.7438 13.7749 25.3826L15.8794 16.2009C15.8974 16.1225 15.937 16.0508 15.9939 15.9939C16.0508 15.937 16.1225 15.8974 16.2009 15.8794L25.3826 13.7749C25.7438 13.6921 26 13.3706 26 13C26 12.6294 25.7438 12.3079 25.3826 12.2251L16.2009 10.1206C16.1225 10.1026 16.0508 10.063 15.9939 10.0061C15.937 9.94925 15.8974 9.87751 15.8794 9.79908L13.7749 0.617439ZM13 9.56096C14.898 9.56096 16.439 11.102 16.439 13C16.439 14.898 14.898 16.439 13 16.439C11.102 16.439 9.56096 14.898 9.56096 13C9.56096 11.102 11.102 9.56096 13 9.56096Z" fill="white"/>
</svg>
