<svg width="20" height="20" viewBox="0 0 20 20" fill="none" xmlns="http://www.w3.org/2000/svg">
<path fill-rule="evenodd" clip-rule="evenodd" d="M9.98942 0.25L10.0167 0.251297C10.5801 0.262706 11.1779 0.484072 11.7238 0.898419L11.725 0.899384C13.8623 2.529 17.3782 5.41446 18.6926 6.7011C19.2054 7.20339 19.4546 7.77666 19.5758 8.213C19.6367 8.43215 19.667 8.62242 19.6821 8.76177C19.6897 8.83172 19.6936 8.88967 19.6956 8.93301C19.6966 8.95471 19.6971 8.97282 19.6973 8.98704L19.6976 9.00542L19.6976 9.01237L19.6976 9.01499L19.6976 9.01657L19.6651 16.4492V16.4508C19.6647 17.6497 19.1384 18.5305 18.2682 19.0713C17.4512 19.5791 16.3947 19.7499 15.3424 19.7499H13.5398C13.0989 19.7499 12.6733 19.5997 12.356 19.2824C12.0387 18.9651 11.8885 18.5394 11.8885 18.0986V13.6822C11.8885 13.0571 11.3668 12.5395 10.8359 12.5395H9.11169C8.58081 12.5395 8.05909 13.0571 8.05909 13.6822V18.0986C8.05909 18.5394 7.90888 18.9651 7.59157 19.2824C7.27425 19.5997 6.84862 19.7499 6.40779 19.7499H4.6052C3.55282 19.7499 2.49633 19.5791 1.67935 19.0713C0.809235 18.5305 0.28295 17.6497 0.282449 16.4509L0.282448 16.4492L0.250022 9.01719L0.25001 9.01527L0.25 9.01237L0.25001 9.00542L0.250219 8.98704C0.25047 8.97282 0.25098 8.95471 0.251967 8.93301C0.253939 8.88967 0.257832 8.83172 0.265446 8.76177C0.280613 8.62241 0.310901 8.43214 0.371768 8.213C0.492958 7.77666 0.741992 7.20353 1.25484 6.70124C2.56925 5.41461 6.08523 2.529 8.22252 0.899385C8.78166 0.474176 9.39656 0.252777 9.96982 0.250092L9.98942 0.25ZM9.96061 1.75033C9.76388 1.75548 9.46614 1.83823 9.13168 2.09246C7.00408 3.71471 3.54975 6.55389 2.30441 7.77288M9.96061 1.75033L9.9691 1.75073L9.98162 1.75091C10.1766 1.75367 10.4763 1.83485 10.8163 2.0928C12.944 3.7151 16.3979 6.55398 17.6432 7.77288C17.918 8.0421 18.0588 8.3563 18.1305 8.61441C18.1661 8.74249 18.183 8.85123 18.1909 8.92407C18.1949 8.96022 18.1965 8.98666 18.1972 9.0012L18.1976 9.01273L18.1651 16.4459L18.1651 16.4492C18.1651 17.1423 17.8965 17.5362 17.4764 17.7973C17.0027 18.0917 16.2729 18.2499 15.3424 18.2499H13.5398C13.488 18.2499 13.4563 18.2414 13.44 18.2351C13.4245 18.2291 13.4186 18.2236 13.4167 18.2217C13.4147 18.2198 13.4093 18.2139 13.4033 18.1983C13.397 18.1821 13.3885 18.1503 13.3885 18.0986V13.6822C13.3885 12.3245 12.2878 11.0395 10.8359 11.0395H9.11169C7.65972 11.0395 6.55909 12.3245 6.55909 13.6822V18.0986C6.55909 18.1503 6.55056 18.1821 6.5443 18.1983C6.53831 18.2139 6.53283 18.2198 6.53091 18.2217C6.52899 18.2236 6.52312 18.2291 6.50753 18.2351C6.49127 18.2414 6.45953 18.2499 6.40779 18.2499H4.6052C3.67471 18.2499 2.94483 18.0917 2.47115 17.7973C2.05102 17.5362 1.78245 17.1423 1.78246 16.4492L1.75001 9.01272L1.75042 9.0012C1.75108 8.98666 1.75271 8.96022 1.75664 8.92407C1.76457 8.85123 1.78149 8.74249 1.81706 8.61441C1.88873 8.35635 2.02962 8.04207 2.30441 7.77288" fill="black"/>
</svg>
