<svg width="390" height="78" viewBox="0 0 390 78" fill="none" xmlns="http://www.w3.org/2000/svg">
<path fill-rule="evenodd" clip-rule="evenodd" d="M185.458 1.34766H159.523L198.342 75.8362H224.277L185.458 1.34766ZM234.672 1.34766H212.549V24.0181H234.672V1.34766Z" fill="black"/>
<path fill-rule="evenodd" clip-rule="evenodd" d="M25.9346 1.34766H0L38.8188 75.8362H64.7534L25.9346 1.34766ZM75.1483 1.34772H53.0254V24.0181H75.1483V1.34772Z" fill="black"/>
<path d="M83.7188 75.7515H110.019V34.5558C110.019 31.7543 110.479 29.435 111.399 27.598C112.366 25.761 113.608 24.4061 115.127 23.5335C116.646 22.6609 118.279 22.2247 120.028 22.2247C121.409 22.2247 122.858 22.5461 124.377 23.1891C125.896 23.7861 127.184 24.9573 128.243 26.7024C129.301 28.4476 129.83 30.9965 129.83 34.3491V75.7515H156.199V27.8047C156.199 18.7572 153.991 11.9831 149.573 7.48238C145.201 2.9357 139.31 0.662358 131.901 0.662358C127.621 0.662358 123.986 1.37421 120.995 2.79792C118.049 4.22163 115.702 5.96682 113.954 8.03349C112.251 10.0542 111.077 11.9831 110.433 13.8202H109.191V1.69569H83.7188V75.7515Z" fill="black"/>
<path d="M241.658 40.618C241.658 48.5633 243.153 55.2455 246.145 60.6648C249.136 66.0841 253.301 70.1944 258.639 72.9959C264.023 75.7974 270.282 77.1982 277.415 77.1982C283.535 77.1982 289.104 76.1878 294.12 74.167C299.182 72.1004 303.255 68.8626 306.338 64.4537C309.421 60.0448 311.032 54.2811 311.17 47.1625H287.7C287.608 48.9536 287.263 50.6529 286.665 52.2603C286.113 53.8218 285.192 55.0848 283.904 56.0492C282.615 57.0137 280.82 57.4959 278.519 57.4959C275.298 57.4959 272.767 56.0262 270.926 53.087C269.131 50.1477 268.234 45.8766 268.234 40.2736V35.8647C268.234 30.9965 269.154 27.1387 270.995 24.2913C272.882 21.4439 275.367 20.0202 278.45 20.0202C280.245 20.0202 281.81 20.5024 283.144 21.4669C284.479 22.4313 285.537 23.7172 286.32 25.3247C287.102 26.9321 287.539 28.7002 287.631 30.6291H311.101C311.055 24.6128 309.674 19.3313 306.959 14.7846C304.244 10.2379 300.379 6.67867 295.362 4.10681C290.392 1.53495 284.456 0.249023 277.553 0.249023C270.098 0.249023 263.678 1.74162 258.294 4.72682C252.955 7.71201 248.837 11.8913 245.937 17.2646C243.084 22.638 241.658 28.861 241.658 35.9336V40.618Z" fill="black"/>
<path d="M355.556 77.1982C361.631 77.1982 366.808 76.3715 371.088 74.7182C375.367 73.0648 378.865 70.9063 381.58 68.2426C384.295 65.5329 386.297 62.6396 387.585 59.5626C388.92 56.4396 389.633 53.4544 389.725 50.607H366.186C366.14 52.2144 365.611 53.6151 364.599 54.8092C363.586 55.9574 362.275 56.83 360.664 57.427C359.099 58.024 357.351 58.3226 355.418 58.3226C352.565 58.3226 349.988 57.3581 347.687 55.4292C345.432 53.4544 344.304 50.584 344.304 46.8181V43.8558H390.002V36.1403C390.002 28.6543 388.506 22.2476 385.515 16.9202C382.569 11.5468 378.428 7.43645 373.089 4.58904C367.797 1.69569 361.607 0.249023 354.52 0.249023C348.032 0.249023 342.072 1.53495 336.642 4.10681C331.212 6.67867 326.863 10.6054 323.595 15.8869C320.328 21.1684 318.694 27.8965 318.694 36.0714V40.9625C318.694 49.1833 320.259 55.9803 323.388 61.3537C326.564 66.6811 330.912 70.6537 336.435 73.2715C342.003 75.8893 348.377 77.1982 355.556 77.1982ZM344.304 29.8713C344.304 27.621 344.741 25.6461 345.616 23.9469C346.536 22.2017 347.779 20.8469 349.343 19.8824C350.908 18.918 352.726 18.4358 354.797 18.4358C356.867 18.4358 358.662 18.918 360.181 19.8824C361.7 20.8469 362.873 22.2017 363.701 23.9469C364.53 25.6461 364.944 27.621 364.944 29.8713H344.304Z" fill="black"/>
</svg>
