<?xml version="1.0" encoding="UTF-8" standalone="no"?>
<!DOCTYPE svg PUBLIC "-//W3C//DTD SVG 1.1//EN" "http://www.w3.org/Graphics/SVG/1.1/DTD/svg11.dtd">
<svg width="100%" height="100%" viewBox="0 0 40 40" version="1.1" xmlns="http://www.w3.org/2000/svg" xmlns:xlink="http://www.w3.org/1999/xlink" xml:space="preserve" xmlns:serif="http://www.serif.com/" style="fill-rule:evenodd;clip-rule:evenodd;stroke-linejoin:round;stroke-miterlimit:2;">
    <g transform="matrix(1,0,0,1,-1472.12,-1165.71)">
        <g id="Artboard2" transform="matrix(0.0450262,0,0,0.0354654,1412.45,1128.04)">
            <rect x="1325.28" y="1062" width="888.372" height="1127.86" style="fill:none;"/>
            <g transform="matrix(37.0155,0,0,46.9941,1769.47,1625.93)">
                <g transform="matrix(1,0,0,1,-12,-12)">
                    <clipPath id="_clip1">
                        <rect x="0" y="0" width="24" height="24"/>
                    </clipPath>
                    <g clip-path="url(#_clip1)">
                        <g id="icons" transform="matrix(1.1981,0,0,1.1981,-2.37722,-3.57533)">
                            <g id="user">
                            </g>
                            <g transform="matrix(0.68409,0,0,0.834653,3.77651,3.64041)">
                                <path d="M12,23.214C7.325,23.214 3.957,22.707 2.081,22.278C0.941,22.017 0,21.204 0,20.034C0,16.964 4.755,13.318 12,13.318C19.245,13.318 24.019,16.964 24.019,20.034C24.019,21.204 23.078,22.017 21.938,22.278C19.936,22.736 16.675,23.214 12,23.214Z"/>
                            </g>
                            <g transform="matrix(1,0,0,1,-0.0158418,0)">
                                <circle cx="12" cy="8" r="5"/>
                            </g>
                        </g>
                    </g>
                </g>
            </g>
        </g>
    </g>
</svg>
