<svg width="23" height="18" viewBox="0 0 23 18" fill="none" xmlns="http://www.w3.org/2000/svg">
<path fill-rule="evenodd" clip-rule="evenodd" d="M15.6212 1.51203C15.952 2.16113 16.465 2.76439 17.1934 2.77888C18.458 2.80403 19.2436 2.89475 19.8858 3.22197C20.6674 3.62022 21.3029 4.25567 21.7011 5.03727C22.1538 5.92583 22.1538 7.08902 22.1538 9.41539V11.3538C22.1538 13.6802 22.1538 14.8434 21.7011 15.7319C21.3029 16.5135 20.6674 17.149 19.8858 17.5472C18.9973 18 17.8341 18 15.5077 18H6.64615C4.31979 18 3.1566 18 2.26804 17.5472C1.48644 17.149 0.850985 16.5135 0.452742 15.7319C0 14.8434 0 13.6802 0 11.3538V9.41539C0 7.08902 0 5.92583 0.452742 5.03727C0.850985 4.25567 1.48644 3.62022 2.26804 3.22197C2.91024 2.89475 3.69591 2.80403 4.96049 2.77888C5.68884 2.76439 6.20187 2.16113 6.5326 1.51203C6.7981 0.990962 7.22174 0.567323 7.74277 0.301828C8.33518 0 9.11063 0 10.6615 0H11.4923C13.0432 0 13.8187 0 14.4111 0.301828C14.9321 0.567323 15.3557 0.990962 15.6212 1.51203ZM11.0769 13.6385C12.8739 13.6385 14.3308 12.1816 14.3308 10.3846C14.3308 8.58759 12.8739 7.13077 11.0769 7.13077C9.2799 7.13077 7.82308 8.58759 7.82308 10.3846C7.82308 12.1816 9.2799 13.6385 11.0769 13.6385ZM11.0769 15.2308C13.7534 15.2308 15.9231 13.0611 15.9231 10.3846C15.9231 7.70815 13.7534 5.53846 11.0769 5.53846C8.40046 5.53846 6.23077 7.70815 6.23077 10.3846C6.23077 13.0611 8.40046 15.2308 11.0769 15.2308ZM17.6883 8.23839C18.3574 8.23839 18.8999 7.69597 18.8999 7.02685C18.8999 6.35774 18.3574 5.81532 17.6883 5.81532C17.0192 5.81532 16.4768 6.35774 16.4768 7.02685C16.4768 7.69597 17.0192 8.23839 17.6883 8.23839Z" fill="black"/>
</svg>
