<svg width="735" height="735" viewBox="0 0 735 735" fill="none" xmlns="http://www.w3.org/2000/svg">
<circle cx="367.5" cy="367.5" r="289.5" stroke="white" stroke-width="38" stroke-dasharray="48 20"/>
<circle cx="367.5" cy="367.5" r="222" stroke="white" stroke-width="59" stroke-dasharray="431 20"/>
<path d="M468 368L455.127 371.918C415.256 384.053 384.053 415.256 371.918 455.127L368 468L364.082 455.127C351.947 415.256 320.744 384.053 280.873 371.918L268 368L280.873 364.082C320.744 351.947 351.947 320.744 364.082 280.873L368 268L371.918 280.873C384.053 320.744 415.256 351.947 455.127 364.082L468 368Z" fill="white"/>
<path fill-rule="evenodd" clip-rule="evenodd" d="M478.428 17.038L466.971 53.2696C435.633 43.3597 402.228 38 367.5 38C332.771 38 299.367 43.3597 268.029 53.2696L256.572 17.038C291.573 5.96984 328.839 0 367.5 0C406.161 0 443.427 5.96983 478.428 17.038Z" fill="white"/>
</svg>
