<svg width="26" height="22" viewBox="0 0 26 22" fill="none" xmlns="http://www.w3.org/2000/svg">
<path fill-rule="evenodd" clip-rule="evenodd" d="M18.3333 1.77454C18.7215 2.53633 19.3235 3.24432 20.1784 3.26132C21.6626 3.29084 22.5845 3.39731 23.3382 3.78134C24.2555 4.24873 25.0014 4.9945 25.4687 5.9118C26 6.95462 26 8.31975 26 11.05V13.3249C26 16.0552 26 17.4204 25.4687 18.4631C25.0014 19.3804 24.2555 20.1263 23.3382 20.5936C22.2955 21.125 20.9303 21.125 18.2 21.125H7.80001C5.06976 21.125 3.70463 21.125 2.6618 20.5936C1.74451 20.1263 0.998728 19.3804 0.531344 18.4631C0 17.4204 0 16.0552 0 13.3249V11.05C0 8.31975 0 6.95462 0.531344 5.9118C0.998728 4.9945 1.74451 4.24873 2.6618 3.78134C3.4155 3.39731 4.33757 3.29084 5.8217 3.26132C6.6765 3.24432 7.2786 2.53633 7.66675 1.77454C7.97834 1.163 8.47553 0.665817 9.08702 0.354229C9.78228 0 10.6924 0 12.5125 0H13.4875C15.3077 0 16.2178 0 16.9131 0.354229C17.5245 0.665817 18.0217 1.163 18.3333 1.77454ZM13 16.0063C15.109 16.0063 16.8188 14.2965 16.8188 12.1875C16.8188 10.0785 15.109 8.36875 13 8.36875C10.891 8.36875 9.18127 10.0785 9.18127 12.1875C9.18127 14.2965 10.891 16.0063 13 16.0063ZM13 17.875C16.1412 17.875 18.6876 15.3287 18.6876 12.1875C18.6876 9.04637 16.1412 6.5 13 6.5C9.85889 6.5 7.31252 9.04637 7.31252 12.1875C7.31252 15.3287 9.85889 17.875 13 17.875ZM20.7592 9.66867C21.5445 9.66867 22.1812 9.03208 22.1812 8.24679C22.1812 7.46151 21.5445 6.82492 20.7592 6.82492C19.974 6.82492 19.3374 7.46151 19.3374 8.24679C19.3374 9.03208 19.974 9.66867 20.7592 9.66867Z" fill="white"/>
</svg>
