<svg width="18" height="18" viewBox="0 0 18 18" fill="none" xmlns="http://www.w3.org/2000/svg">
<path fill-rule="evenodd" clip-rule="evenodd" d="M8.11169 10.7894C7.12027 10.7894 6.3091 11.6907 6.3091 12.6822V17.0985C6.3091 17.6393 5.94858 17.9998 5.4078 17.9998H3.6052C1.62234 17.9998 0.0324501 17.3419 0.0324501 15.4491L3.30317e-06 8.01163C3.30317e-06 8.01163 -0.00810844 7.00849 0.779627 6.23698C2.05947 4.98417 5.54479 2.12165 7.67727 0.495714C8.12882 0.152319 8.58848 0.00180259 8.97334 0L8.99226 0.000901232C9.37351 0.00630902 9.82506 0.157727 10.2703 0.495714C12.4028 2.12165 15.8881 4.98417 17.1679 6.23698C17.9557 7.00849 17.9476 8.01163 17.9476 8.01163L17.9151 15.4491C17.9151 17.3419 16.3252 17.9998 14.3424 17.9998H12.5398C11.999 17.9998 11.6385 17.6393 11.6385 17.0985V12.6822C11.6385 11.6907 10.8273 10.7894 9.83588 10.7894H8.11169Z" fill="black"/>
</svg>
