<svg width="23" height="18" viewBox="0 0 23 18" fill="none" xmlns="http://www.w3.org/2000/svg">
<path fill-rule="evenodd" clip-rule="evenodd" d="M19.2572 4.45567C18.9267 4.28725 18.4335 4.18843 17.1658 4.16322C15.6124 4.13232 14.7597 2.87094 14.3875 2.14063L15.6212 1.51203C15.952 2.16113 16.465 2.76439 17.1934 2.77888C18.458 2.80403 19.2436 2.89475 19.8858 3.22197C20.6674 3.62022 21.3029 4.25567 21.7011 5.03727C22.1538 5.92583 22.1538 7.08902 22.1538 9.41539V11.3538C22.1538 13.6802 22.1538 14.8434 21.7011 15.7319C21.3029 16.5135 20.6674 17.149 19.8858 17.5472C18.9973 18 17.8341 18 15.5077 18H6.64615C4.31979 18 3.1566 18 2.26804 17.5472C1.48644 17.149 0.850985 16.5135 0.452742 15.7319C0 14.8434 0 13.6802 0 11.3538V9.41539C0 7.08902 0 5.92583 0.452742 5.03727C0.850985 4.25567 1.48644 3.62022 2.26804 3.22197C2.91024 2.89475 3.69591 2.80403 4.96049 2.77888C5.68884 2.76439 6.20187 2.16113 6.5326 1.51203C6.7981 0.990962 7.22174 0.567323 7.74277 0.301828C8.33518 0 9.11063 0 10.6615 0H11.4923C13.0432 0 13.8187 0 14.4111 0.301828L13.7825 1.53553C13.714 1.50065 13.5746 1.44848 13.1984 1.41774C12.8061 1.3857 12.2906 1.38462 11.4923 1.38462H10.6615C9.86324 1.38462 9.34775 1.3857 8.95549 1.41774C8.57929 1.44848 8.43985 1.50065 8.37138 1.53553C8.11087 1.66827 7.89902 1.88009 7.76631 2.14063C7.39419 2.87094 6.54139 4.13232 4.98802 4.16322C3.72036 4.18843 3.22721 4.28725 2.89664 4.45567C2.37558 4.72117 1.95194 5.14481 1.68644 5.66587C1.5761 5.88243 1.4862 6.19286 1.43661 6.7999C1.3857 7.42313 1.38462 8.22932 1.38462 9.41539V11.3538C1.38462 12.5399 1.3857 13.3461 1.43661 13.9693C1.4862 14.5764 1.5761 14.8868 1.68644 15.1034C1.95194 15.6244 2.37558 16.048 2.89664 16.3135C3.1132 16.4239 3.42363 16.5138 4.03067 16.5634C4.65387 16.6143 5.46012 16.6154 6.64615 16.6154H15.5077C16.6938 16.6154 17.4999 16.6143 18.1232 16.5634C18.7302 16.5138 19.0407 16.4239 19.2572 16.3135C19.7783 16.048 20.2019 15.6244 20.4674 15.1034C20.5777 14.8868 20.6677 14.5764 20.7172 13.9693C20.7681 13.3461 20.7692 12.5399 20.7692 11.3538V9.41539C20.7692 8.22932 20.7681 7.42313 20.7172 6.7999C20.6677 6.19286 20.5777 5.88243 20.4674 5.66587C20.2019 5.14481 19.7783 4.72117 19.2572 4.45567ZM14.4111 0.301828C14.9321 0.567323 15.3557 0.990962 15.6212 1.51203L14.3875 2.14063C14.2548 1.88009 14.043 1.66827 13.7825 1.53553L14.4111 0.301828ZM11.0769 13.8462C12.9887 13.8462 14.5385 12.2964 14.5385 10.3846C14.5385 8.47288 12.9887 6.92308 11.0769 6.92308C9.16518 6.92308 7.61538 8.47288 7.61538 10.3846C7.61538 12.2964 9.16518 13.8462 11.0769 13.8462ZM11.0769 15.2308C13.7534 15.2308 15.9231 13.0611 15.9231 10.3846C15.9231 7.70815 13.7534 5.53846 11.0769 5.53846C8.40046 5.53846 6.23077 7.70815 6.23077 10.3846C6.23077 13.0611 8.40046 15.2308 11.0769 15.2308ZM17.5845 8.0307C18.1963 8.0307 18.6922 7.5348 18.6922 6.92301C18.6922 6.31125 18.1963 5.81532 17.5845 5.81532C16.9727 5.81532 16.4768 6.31125 16.4768 6.92301C16.4768 7.5348 16.9727 8.0307 17.5845 8.0307Z" fill="black"/>
</svg>
